<?xml version="1.0" encoding="UTF-8"?>
<svg width="24px" height="24px" viewBox="0 0 24 24" version="1.1" xmlns="http://www.w3.org/2000/svg" xmlns:xlink="http://www.w3.org/1999/xlink">
    <!-- Generator: Sketch 43.2 (39069) - http://www.bohemiancoding.com/sketch -->
    <title>Icons/ic-help-24-px</title>
    <desc>Created with Sketch.</desc>
    <defs></defs>
    <g id="Symbols" stroke="none" stroke-width="1" fill="none" fill-rule="evenodd">
        <g id="Icons/ic-help-24-px">
            <g id="ic-help-24-px">
                <polygon id="Shape" points="0 0 24 0 24 24 0 24"></polygon>
                <g id="Group-3" transform="translate(6.000000, 6.000000)">
                    <path d="M6,-0.5 C2.41185763,-0.5 -0.5,2.41185763 -0.5,6 C-0.5,9.58814237 2.41185763,12.5 6,12.5 C9.58814237,12.5 12.5,9.58814237 12.5,6 C12.5,2.41185763 9.58814237,-0.5 6,-0.5 Z" id="Shape" stroke="#FFFFFF" fill-rule="nonzero"></path>
                    <polygon id="Path" fill="#FFFFFF" points="6.6 10.2 5.4 10.2 5.4 9 6.6 9"></polygon>
                    <path d="M7.842,5.55 L7.302,6.102 C6.87,6.54 6.6,6.9 6.6,7.8 L5.4,7.8 L5.4,7.5 C5.4,6.84 5.67,6.24 6.102,5.802 L6.846,5.046 C7.068,4.83 7.2,4.53 7.2,4.2 C7.2,3.54 6.66,3 6,3 C5.34,3 4.8,3.54 4.8,4.2 L3.6,4.2 C3.6,2.874 4.674,1.8 6,1.8 C7.326,1.8 8.4,2.874 8.4,4.2 C8.4,4.728 8.184,5.208 7.842,5.55 Z" id="Path" fill="#FFFFFF"></path>
                </g>
            </g>
        </g>
    </g>
</svg>